<mxfile host="Electron" agent="Mozilla/5.0 (Windows NT 10.0; Win64; x64) AppleWebKit/537.36 (KHTML, like Gecko) draw.io/25.0.1 Chrome/128.0.6613.186 Electron/32.2.6 Safari/537.36" version="25.0.1">
  <diagram name="Page-1" id="-H_mtQnk-PTXWXPvYvuk">
    <mxGraphModel dx="1562" dy="909" grid="1" gridSize="10" guides="1" tooltips="1" connect="1" arrows="1" fold="1" page="1" pageScale="1" pageWidth="1169" pageHeight="827" math="0" shadow="0">
      <root>
        <mxCell id="0" />
        <mxCell id="1" parent="0" />
        <mxCell id="zA23MoTUsTF4_91t8viU-2" value="&lt;b&gt;shard1&lt;/b&gt;" style="shape=cylinder3;whiteSpace=wrap;html=1;boundedLbl=1;backgroundOutline=1;size=15;strokeWidth=2;" parent="1" vertex="1">
          <mxGeometry x="387" y="421" width="60" height="80" as="geometry" />
        </mxCell>
        <mxCell id="zA23MoTUsTF4_91t8viU-3" value="&lt;b&gt;&lt;font color=&quot;#333333&quot;&gt;pymongo-api&lt;/font&gt;&lt;/b&gt;" style="rounded=1;whiteSpace=wrap;html=1;strokeWidth=2;strokeColor=#333333;" parent="1" vertex="1">
          <mxGeometry x="475" y="170" width="120" height="60" as="geometry" />
        </mxCell>
        <mxCell id="sGdueFbf5gFJr58cs0Tm-1" value="&lt;b&gt;configSrv&lt;/b&gt;" style="rounded=1;whiteSpace=wrap;html=1;strokeWidth=2;" parent="1" vertex="1">
          <mxGeometry x="679" y="310" width="120" height="60" as="geometry" />
        </mxCell>
        <mxCell id="sGdueFbf5gFJr58cs0Tm-15" style="edgeStyle=orthogonalEdgeStyle;rounded=0;orthogonalLoop=1;jettySize=auto;html=1;exitX=1;exitY=0.5;exitDx=0;exitDy=0;entryX=0;entryY=0.5;entryDx=0;entryDy=0;strokeWidth=2;" parent="1" source="sGdueFbf5gFJr58cs0Tm-3" target="sGdueFbf5gFJr58cs0Tm-1" edge="1">
          <mxGeometry relative="1" as="geometry" />
        </mxCell>
        <mxCell id="sGdueFbf5gFJr58cs0Tm-21" style="edgeStyle=orthogonalEdgeStyle;rounded=1;orthogonalLoop=1;jettySize=auto;html=1;exitX=0;exitY=0.5;exitDx=0;exitDy=0;curved=0;strokeWidth=2;startArrow=classic;startFill=1;" parent="1" source="sGdueFbf5gFJr58cs0Tm-3" target="zA23MoTUsTF4_91t8viU-2" edge="1">
          <mxGeometry relative="1" as="geometry" />
        </mxCell>
        <mxCell id="sGdueFbf5gFJr58cs0Tm-3" value="&lt;b&gt;router&lt;/b&gt;" style="rounded=1;whiteSpace=wrap;html=1;strokeWidth=2;" parent="1" vertex="1">
          <mxGeometry x="474" y="310" width="120" height="60" as="geometry" />
        </mxCell>
        <mxCell id="sGdueFbf5gFJr58cs0Tm-4" value="&lt;b&gt;shard2&lt;/b&gt;" style="shape=cylinder3;whiteSpace=wrap;html=1;boundedLbl=1;backgroundOutline=1;size=15;strokeWidth=2;" parent="1" vertex="1">
          <mxGeometry x="610" y="421" width="60" height="80" as="geometry" />
        </mxCell>
        <mxCell id="sGdueFbf5gFJr58cs0Tm-5" style="edgeStyle=orthogonalEdgeStyle;rounded=1;orthogonalLoop=1;jettySize=auto;html=1;entryX=0.427;entryY=0.007;entryDx=0;entryDy=0;entryPerimeter=0;strokeWidth=2;curved=0;" parent="1" edge="1">
          <mxGeometry relative="1" as="geometry">
            <mxPoint x="533.73" y="230.58" as="sourcePoint" />
            <mxPoint x="533.97" y="310.00000000000006" as="targetPoint" />
          </mxGeometry>
        </mxCell>
        <mxCell id="sGdueFbf5gFJr58cs0Tm-22" style="edgeStyle=orthogonalEdgeStyle;rounded=1;orthogonalLoop=1;jettySize=auto;html=1;exitX=1;exitY=0.5;exitDx=0;exitDy=0;entryX=0.5;entryY=0;entryDx=0;entryDy=0;entryPerimeter=0;curved=0;strokeWidth=2;startArrow=classic;startFill=1;" parent="1" source="sGdueFbf5gFJr58cs0Tm-3" target="sGdueFbf5gFJr58cs0Tm-4" edge="1">
          <mxGeometry relative="1" as="geometry" />
        </mxCell>
        <mxCell id="sGdueFbf5gFJr58cs0Tm-23" value="" style="endArrow=none;dashed=1;html=1;rounded=0;entryX=-0.024;entryY=0.547;entryDx=0;entryDy=0;entryPerimeter=0;" parent="1" target="sGdueFbf5gFJr58cs0Tm-4" edge="1">
          <mxGeometry width="50" height="50" relative="1" as="geometry">
            <mxPoint x="447" y="464" as="sourcePoint" />
            <mxPoint x="497" y="414" as="targetPoint" />
          </mxGeometry>
        </mxCell>
      </root>
    </mxGraphModel>
  </diagram>
</mxfile>
